Coordinates
version=1
nRows=10
nColumns=28
inDegrees=yes

Units are S.I. units (second, meters, Newtons, ...)
Angles are in degrees.

endheader
time	pelvis_tilt	pelvis_list	pelvis_rotation	pelvis_tx	pelvis_ty	pelvis_tz	hip_flexion_r	hip_adduction_r	hip_rotation_r	knee_angle_r	ankle_angle_r	subtalar_angle_r	mtp_angle_r	hip_flexion_l	hip_adduction_l	hip_rotation_l	knee_angle_l	socket_flexion	socket_adduction	socket_rotation	socket_tx	socket_ty	socket_tz	foot_flex	lumbar_extension	lumbar_bending	lumbar_rotation
      0.31666667	      2.56018521	     -1.00105609	     -4.88018053	     -0.42048989	      1.03296240	      0.26885477	     14.06136388	      1.06694076	     -2.29700067	    -60.68943259	     10.99019889	    -16.78238096	     -5.14569310	     -8.53779944	      1.06910632	      8.08966828	      4.26364067	      0.92438532	      0.00000000	      0.00000000	      0.00000000	      0.00000000	      0.00000000	     -0.25282954	    -12.22428144	     -2.72432947	      3.02893801
      0.32083333	      2.87650538	     -1.65553285	     -4.49012974	     -0.41482414	      1.03394597	      0.26825226	     13.89807481	      1.72244995	     -2.73327116	    -59.76547614	     12.04411883	    -16.35786404	     -7.36407800	     -9.63175933	      0.30007581	      8.42591763	      5.30105525	      1.50220918	      0.00000000	      0.00000000	      0.00000000	      0.00000000	      0.00000000	     -0.12906131	    -12.62555033	     -1.86638521	      2.59529091
      0.32500000	      2.90118388	     -1.65914260	     -4.44622711	     -0.41003354	      1.03419669	      0.26815497	     14.43560575	      1.72762674	     -2.77803115	    -59.32592164	     12.12485299	    -16.37190456	     -7.36141021	     -9.94050092	      0.32820001	      8.42516378	      5.25736016	      1.43736210	      0.00000000	      0.00000000	      0.00000000	      0.00000000	      0.00000000	     -0.07777542	    -12.73771013	     -1.85904223	      2.58335253
      0.32916667	      2.81895344	     -1.93396589	     -4.19430970	     -0.40455822	      1.03454471	      0.26778985	     14.81783189	      2.02774409	     -3.01398796	    -58.48635821	     12.65128307	    -16.41297500	     -7.35492596	    -10.20191435	      0.02472718	      8.53163448	      5.24990008	      1.39855322	      0.00000000	      0.00000000	      0.00000000	      0.00000000	      0.00000000	      0.16301231	    -12.63616388	     -1.48347136	      2.46724462
      0.33333333	      2.78234782	     -2.13843958	     -3.96929244	     -0.39940132	      1.03485232	      0.26742815	     15.21807766	      2.22936636	     -3.23232755	    -57.71022252	     12.89828818	    -16.38395648	     -7.42586874	    -10.51015104	     -0.21287617	      8.69807862	      5.33359046	      1.42042388	      0.00000000	      0.00000000	      0.00000000	      0.00000000	      0.00000000	      0.24090831	    -12.64919684	     -1.19745565	      2.29814802
      0.33750000	      2.95803965	     -2.53618471	     -3.55692707	     -0.39410449	      1.03539389	      0.26679918	     15.30542287	      2.55528633	     -3.73103504	    -56.82051808	     13.19809431	    -16.36546022	     -8.15338966	    -11.22146264	     -0.71742709	      9.08367809	      5.90679844	      1.73109096	      0.00000000	      0.00000000	      0.00000000	      0.00000000	      0.00000000	      0.34171078	    -12.92243498	     -0.59919595	      1.59708457
      0.34166667	      2.95492920	     -2.55497009	     -3.47549274	     -0.38912421	      1.03557321	      0.26668120	     15.73779826	      2.57460405	     -3.79347858	    -56.11104888	     13.35574316	    -16.39167040	     -8.17571495	    -11.51262461	     -0.71277089	      9.06217270	      5.86675605	      1.68071770	      0.00000000	      0.00000000	      0.00000000	      0.00000000	      0.00000000	      0.43262073	    -12.97345132	     -0.57333180	      1.61238931
      0.34583333	      2.93747926	     -2.92381989	     -3.18268014	     -0.38383353	      1.03587315	      0.26627119	     16.00919753	      2.93462952	     -4.13011091	    -55.13813262	     13.68627101	    -16.44862309	     -8.42765484	    -11.86951649	     -1.15992861	      9.28723533	      5.98477886	      1.68957861	      0.00000000	      0.00000000	      0.00000000	      0.00000000	      0.00000000	      0.56753465	    -13.00611481	     -0.07117183	      1.51623677
      0.35000000	      3.02491977	     -3.14960259	     -2.95413648	     -0.37868200	      1.03618649	      0.26594686	     16.20961767	      3.13014685	     -4.40143431	    -54.19982162	     13.86064334	    -16.56148528	     -8.83827414	    -12.36451923	     -1.43949822	      9.46033566	      6.21268330	      1.77244676	      0.00000000	      0.00000000	      0.00000000	      0.00000000	      0.00000000	      0.66550334	    -13.12531708	      0.23440658	      1.26667249
      0.35416667	      3.02754128	     -3.15792881	     -2.87839333	     -0.37371544	      1.03629205	      0.26586236	     16.58641695	      3.11939117	     -4.51829958	    -53.38755797	     14.02248688	    -16.62591858	     -8.91014671	    -12.64277688	     -1.42688490	      9.45902383	      6.11659719	      1.68468192	      0.00000000	      0.00000000	      0.00000000	      0.00000000	      0.00000000	      0.79310808	    -13.18791219	      0.26324776	      1.23820456
